{"title":"Empire 2002 720p WEB-DL x264 SSloco","uid":11984899,"size":605356953,"categoryP":"video","categoryS":"hd___movies","magnet":"?xt=urn:btih:4d4c38c8389a2f701f02258b8d7222b19a54a72f&amp;dn=Empire+2002+720p+WEB-DL+x264+SSloco&amp;tr=udp%3A%2F%2Ftracker.openbittorrent.com%3A80&amp;tr=udp%3A%2F%2Fopen.demonii.com%3A1337&amp;tr=udp%3A%2F%2Ftracker.coppersurfer.tk%3A6969&amp;tr=udp%3A%2F%2Fexodus.desync.com%3A6969","seeders":2,"leechers":0,"uploader":"myhoes14","files":1,"time":1433326741,"description":"Source:Empire.2002.1080p.WEB-DL.DD5.1.H264-RARBG \n\n\n\nMedia Info\n\n\nFormat : MPEG-4\nFormat profile : Base Media\nCodec ID : isom\nFile size : 577 MiB\nDuration : 1h 39mn\nOverall bit rate mode : Variable\nOverall bit rate : 812 Kbps\nEncoded date : UTC 2015-03-08 01:57:17\nTagged date : UTC 2015-03-08 01:57:17\n\nVideo\nID : 1\nFormat : AVC\nFormat/Info : Advanced Video Codec\nFormat profile : &lt;a class=&quot;__cf_email__&quot; href=&quot;/cdn-cgi/l/email-protection&quot; data-cfemail=&quot;1d55747a755d5129332c&quot;&gt;[email&amp;#160;protected]&lt;/a&gt;&lt;script data-cfhash='f9e31' type=&quot;text/javascript&quot;&gt;\n/* &lt;![CDATA[ */!function(){try{var t=&quot;currentScript&quot;in document?document.currentScript:function(){for(var t=document.getElementsByTagName(&quot;script&quot;),e=t.length;e--;)if(t[e].getAttribute(&quot;data-cfhash&quot;))return t[e]}();if(t&amp;&amp;t.previousSibling){var e,r,n,i,c=t.previousSibling,a=c.getAttribute(&quot;data-cfemail&quot;);if(a){for(e=&quot;&quot;,r=parseInt(a.substr(0,2),16),n=2;a.length-n;n+=2)i=parseInt(a.substr(n,2),16)^r,e+=String.fromCharCode(i);e=document.createTextNode(e),c.parentNode.replaceChild(e,c)}t.parentNode.removeChild(t);}}catch(u){}}()/* ]]&gt; */&lt;/script&gt;\nFormat settings, CABAC : Yes\nFormat settings, ReFrames : 9 frames\nCodec ID : avc1\nCodec ID/Info : Advanced Video Coding\nDuration : 1h 39mn\nBit rate : 660 Kbps\nMaximum bit rate : 4 629 Kbps\nWidth : 1 280 pixels\nHeight : 552 pixels\nDisplay aspect ratio : 2.35:1\nFrame rate mode : Constant\nFrame rate : 23.976 fps\nColor space : YUV\nChroma subsampling : 4:2:0\nBit depth : 8 bits\nScan type : Progressive\nBits/(Pixel*Frame) : 0.039\nStream size : 469 MiB (81%)\nWriting library : x264 core 142 r2431 ac76440\nEncoding settings : cabac=1 / ref=9 / deblock=1:-1:-1 / analyse=0x3:0x113 / me=umh / subme=9 / psy=1 / psy_rd=1.00:0.00 / mixed_ref=1 / me_range=32 / chroma_me=1 / trellis=2 / 8x8dct=1 / cqm=0 / deadzone=21,11 / fast_pskip=1 / chroma_qp_offset=-2 / threads=6 / lookahead_threads=1 / sliced_threads=0 / nr=0 / decimate=1 / interlaced=0 / bluray_compat=0 / constrained_intra=0 / bframes=4 / b_pyramid=2 / b_adapt=2 / b_bias=0 / direct=3 / weightb=1 / open_gop=0 / weightp=2 / keyint=240 / keyint_min=23 / scenecut=40 / intra_refresh=0 / rc_lookahead=60 / rc=2pass / mbtree=1 / bitrate=660 / ratetol=1.0 / qcomp=0.60 / qpmin=0 / qpmax=69 / qpstep=4 / cplxblur=20.0 / qblur=0.5 / vbv_maxrate=62500 / vbv_bufsize=78125 / nal_hrd=none / filler=0 / ip_ratio=1.40 / aq=1:1.00\nEncoded date : UTC 2015-03-08 01:57:17\nTagged date : UTC 2015-03-08 01:58:20\nColor primaries : BT.709\nMatrix coefficients : BT.709\nColor range : Limited\n\nAudio\nID : 2\nFormat : AAC\nFormat/Info : Advanced Audio Codec\nFormat profile : HE-AAC / LC\nCodec ID : 40\nDuration : 1h 39mn\nBit rate mode : Variable\nBit rate : 149 Kbps\nMaximum bit rate : 208 Kbps\nChannel(s) : 6 channels\nChannel positions : Front: L C R, Side: L R, LFE\nSampling rate : 48.0 KHz / 24.0 KHz\nCompression mode : Lossy\nStream size : 106 MiB (18%)\nLanguage : English\nEncoded date : UTC 2015-03-08 01:44:40\nTagged date : UTC 2015-03-08 01:58:20\n\nMenu\n00:00:00.000 : Main Titles\n00:02:21.000 : The Entrepreneur\n00:05:34.000 : Trouble\n00:10:34.000 : Respect\n00:14:13.000 : Carmen\n00:20:12.000 : Jack and Trish\n00:25:09.000 : A Bullet in the Back\n00:30:19.000 : War\n00:36:02.000 : The Sure Thing\n00:42:15.000 : A Loft in Soho\n00:46:51.000 : The New Vic\n00:52:40.000 : Smart Money\n00:56:33.000 : La Colombiana\n01:00:42.000 : Jimmy's Way\n01:08:40.000 : A Talk with Trish\n01:11:58.000 : Jimmy Has to Go\n01:19:52.000 : Taken\n01:28:05.000 : Getting Even\n01:33:48.000 : The Consequences\n01:35:56.000 : End Titles","torrent":{"xt":"urn:btih:4d4c38c8389a2f701f02258b8d7222b19a54a72f","amp;dn":"Empire+2002+720p+WEB-DL+x264+SSloco","amp;tr":["udp%3A%2F%2Ftracker.openbittorrent.com%3A80","udp%3A%2F%2Fopen.demonii.com%3A1337","udp%3A%2F%2Ftracker.coppersurfer.tk%3A6969","udp%3A%2F%2Fexodus.desync.com%3A6969"],"infoHash":"4d4c38c8389a2f701f02258b8d7222b19a54a72f","infoHashBuffer":{"type":"Buffer","data":[77,76,56,200,56,154,47,112,31,2,37,139,141,114,34,177,154,84,167,47]},"announce":[],"urlList":[]}}